<svg xmlns="http://www.w3.org/2000/svg" width="135" height="48" viewBox="0 0 135 48">
    <path fill="#FFF" fill-rule="evenodd" d="M48.789 37.939L49.08 48h-2.006l.29-10.061c.233.01.467.017.702.017.243 0 .483-.006.722-.017zm2.438-.334l2.054 9.858-1.975.345-1.482-9.959c.232-.028.462-.062.694-.103.24-.041.475-.089.709-.141zm-6.293 0c.233.052.468.099.707.14l.347.056.347.048-1.482 9.958-1.975-.345 2.056-9.858zm8.634-.747l3.755 9.356-1.885.678-3.208-9.553c.222-.068.445-.141.666-.221.228-.081.452-.168.672-.26zm-10.975 0c.22.091.443.178.671.26l.332.114.332.107-3.207 9.552-1.884-.679 3.756-9.355zm13.15-1.138l5.34 8.569-1.737.992-4.837-8.857c.208-.106.414-.216.617-.333.211-.119.416-.243.617-.371zm-15.326 0c.202.128.406.252.616.371l.307.17.31.163-4.838 8.856-1.735-.992 5.34-8.568zm17.267-1.495l6.764 7.523-1.535 1.275-6.32-7.892c.186-.14.37-.284.55-.433.186-.154.366-.311.541-.473zm-19.208 0c.175.162.356.319.541.473l.272.22.276.213-6.318 7.892-1.535-1.276 6.764-7.521zm-1.65-1.804c.144.189.294.375.45.558l.23.264.234.256-7.608 6.688-1.289-1.52 7.982-6.246zm22.51 0l7.98 6.247-1.288 1.519-7.609-6.688c.159-.168.314-.342.465-.52.156-.183.307-.37.451-.558zm-23.818-2.06c.109.21.223.42.345.627l.18.299.186.293-8.667 5.28-1.002-1.719 8.958-4.78zm25.125-.001l8.956 4.781-1 1.717-8.669-5.278c.126-.194.25-.391.367-.593.121-.207.237-.416.346-.627zM118.8 13.499l4.833 12.38c.917 2.348 1.866 4.818 2.753 7.166h.06c.888-2.378 1.836-4.848 2.753-7.227l4.772-12.32h1.927l-8.595 22.078h-1.866L116.783 13.5h2.018zm-2.232 0v1.707h-7.616v20.37h-1.866v-20.37h-7.616V13.5h17.098zm-33.676-.54c2.135 0 4.753.536 6.648 1.547v4.671c-2.316-1.428-4.994-2.082-6.68-2.082-1.624 0-2.797.595-2.797 2.023 0 1.905 2.016 2.053 4.633 2.916 3.28 1.071 5.927 2.588 5.927 6.397 0 4.195-3.219 6.724-7.912 6.724-2.167 0-4.784-.536-6.77-1.517v-4.761c2.347 1.488 5.115 2.142 6.83 2.142 1.745 0 3.039-.684 3.039-2.29 0-1.994-2.046-2.173-4.844-3.065-3.01-.982-5.717-2.44-5.717-6.189 0-4.017 3.069-6.516 7.643-6.516zm-78.38.328l6.53 8.687c1.414 1.875 2.738 3.69 4.091 5.564l.061-.03c-.03-2.053-.06-4.135-.06-6.218v-8.003h4.603v21.541h-4.514L8.696 26.14c-1.414-1.874-2.738-3.69-4.092-5.564l-.06.03c.03 2.053.06 4.135.06 6.218v8.004H0V13.287h4.514zm30.078 14.82c.07.226.147.452.23.677l.124.325.133.321-9.462 3.71-.686-1.863 9.661-3.17zm26.978-.001l9.66 3.17-.684 1.863-9.463-3.71c.09-.212.176-.427.257-.646.083-.226.159-.45.23-.677zm-27.495-2.378c.03.235.066.47.108.706l.065.342.074.339-9.97 2.029-.347-1.953 10.07-1.463zm28.012-.001l10.07 1.463-.348 1.952-9.971-2.028c.053-.224.1-.452.14-.68.043-.237.078-.472.109-.707zm-38.277-2.718l10.174.288c-.01.237-.017.474-.017.714l.004.348.013.346-10.174.286V23.01zm48.54 0v1.982l-10.175-.286c.011-.23.018-.462.018-.694 0-.24-.007-.477-.018-.714l10.174-.288zm-.543-4.153l.348 1.953-10.07 1.465c-.03-.228-.063-.457-.104-.686-.042-.236-.09-.47-.144-.7l9.97-2.032zm-47.453 0l9.97 2.031c-.053.23-.1.464-.144.7l-.056.343-.047.343-10.07-1.464.347-1.953zm46.19-3.996l.686 1.863-9.662 3.172c-.068-.22-.141-.44-.222-.657-.083-.226-.17-.447-.264-.666l9.462-3.712zm-44.926 0l9.462 3.712c-.094.218-.182.44-.265.664l-.115.329-.107.33-9.66-3.172.685-1.863zm42.98-3.719l1.002 1.718-8.957 4.783c-.105-.205-.217-.41-.334-.61-.122-.208-.248-.41-.378-.61l8.666-5.28zm-41.034 0l8.666 5.281c-.13.199-.255.402-.377.61l-.172.302-.162.307-8.958-4.782 1.003-1.717zm38.464-3.328l1.29 1.52-7.982 6.248c-.14-.184-.286-.365-.436-.544-.157-.183-.316-.361-.479-.535l7.607-6.689zm-35.895 0l7.608 6.69c-.164.173-.322.351-.479.534l-.222.27-.215.274-7.98-6.248 1.288-1.52zm3.114-2.835l6.318 7.893c-.191.143-.379.291-.564.445l-.267.227-.26.233-6.763-7.524 1.536-1.274zm29.667-.001l1.536 1.274-6.763 7.525c-.169-.157-.346-.31-.525-.46-.186-.154-.375-.303-.565-.445l6.317-7.894zm-26.1-2.257l4.834 8.858c-.213.108-.424.222-.634.341l-.302.178-.297.185-5.338-8.571 1.737-.991zm22.534-.001l1.738.992-5.34 8.57c-.195-.125-.395-.246-.598-.363-.21-.12-.421-.233-.635-.34l4.835-8.86zM40.72 1.109l3.206 9.553c-.229.07-.456.146-.684.227l-.33.124-.324.13-3.752-9.356 1.884-.679zm14.72-.002l1.885.678-3.754 9.358c-.214-.09-.432-.175-.653-.255-.228-.082-.456-.157-.685-.226l3.206-9.555zM44.851.192l1.48 9.96c-.239.03-.476.064-.715.106l-.345.065-.344.073-2.051-9.86 1.975-.344zm6.456-.001l1.975.344-2.052 9.86c-.227-.052-.457-.098-.688-.139-.24-.041-.477-.075-.714-.105l1.479-9.96zM49.08 0l-.292 10.061c-.24-.01-.48-.017-.722-.017l-.352.004-.35.013L47.075 0h2.006z"/>
</svg>
